<svg width="24" height="24" viewBox="0 0 24 24" fill="none" xmlns="http://www.w3.org/2000/svg">
<path d="M2 12L1.60957 11.6877L1.35969 12L1.60957 12.3123L2 12ZM11 12.5C11.2761 12.5 11.5 12.2761 11.5 12C11.5 11.7239 11.2761 11.5 11 11.5V12.5ZM5.60957 6.68765L1.60957 11.6877L2.39043 12.3123L6.39043 7.31235L5.60957 6.68765ZM1.60957 12.3123L5.60957 17.3123L6.39043 16.6877L2.39043 11.6877L1.60957 12.3123ZM2 12.5H11V11.5H2V12.5Z" fill="white"/>
<path d="M13.3424 20.5571L13.4246 20.0639L13.3424 20.5571ZM20.9391 20.7477L21.2623 21.1292L20.9391 20.7477ZM15.0136 3.1644L14.9314 2.6712L15.0136 3.1644ZM20.9391 3.25232L21.2623 2.87081L20.9391 3.25232ZM13.4246 3.93613L15.0958 3.6576L14.9314 2.6712L13.2602 2.94974L13.4246 3.93613ZM21.5 9.08276V14.9172H22.5V9.08276H21.5ZM15.0958 20.3424L13.4246 20.0639L13.2602 21.0503L14.9314 21.3288L15.0958 20.3424ZM10.5 8.13193V7.38851H9.5V8.13193H10.5ZM10.5 16.6115V16.066H9.5V16.6115H10.5ZM13.4246 20.0639C12.6138 19.9287 12.0515 19.8341 11.63 19.7086C11.2218 19.5871 11.0059 19.4529 10.8555 19.2753L10.0925 19.9217C10.4159 20.3035 10.8361 20.5156 11.3446 20.667C11.8398 20.8144 12.4747 20.9193 13.2602 21.0503L13.4246 20.0639ZM9.5 16.6115C9.5 17.4078 9.49909 18.0514 9.5631 18.564C9.62883 19.0905 9.76897 19.5398 10.0925 19.9217L10.8555 19.2753C10.705 19.0977 10.6081 18.8627 10.5554 18.4401C10.5009 18.0037 10.5 17.4335 10.5 16.6115H9.5ZM21.5 14.9172C21.5 16.5764 21.4988 17.7672 21.3724 18.6581C21.2479 19.5352 21.0131 20.0297 20.6159 20.3662L21.2623 21.1292C21.926 20.567 22.2217 19.7901 22.3624 18.7986C22.5012 17.821 22.5 16.5459 22.5 14.9172H21.5ZM14.9314 21.3288C16.5379 21.5965 17.7955 21.8073 18.7826 21.8312C19.7838 21.8554 20.5986 21.6914 21.2623 21.1292L20.6159 20.3662C20.2188 20.7026 19.6924 20.8529 18.8068 20.8315C17.9072 20.8098 16.7324 20.6152 15.0958 20.3424L14.9314 21.3288ZM15.0958 3.6576C16.7324 3.38483 17.9072 3.19024 18.8068 3.16851C19.6924 3.14711 20.2188 3.29737 20.6159 3.63383L21.2623 2.87081C20.5986 2.30858 19.7838 2.14461 18.7826 2.1688C17.7955 2.19265 16.5379 2.40346 14.9314 2.6712L15.0958 3.6576ZM22.5 9.08276C22.5 7.45413 22.5012 6.17901 22.3624 5.20135C22.2217 4.20986 21.926 3.43305 21.2623 2.87081L20.6159 3.63383C21.0131 3.97029 21.2479 4.46479 21.3724 5.34188C21.4988 6.23281 21.5 7.42357 21.5 9.08276H22.5ZM13.2602 2.94974C12.4747 3.08065 11.8398 3.18555 11.3446 3.33297C10.8361 3.48436 10.4159 3.69646 10.0925 4.07832L10.8555 4.72469C11.0059 4.54706 11.2218 4.41289 11.63 4.29139C12.0515 4.16591 12.6138 4.07127 13.4246 3.93613L13.2602 2.94974ZM10.5 7.38851C10.5 6.5665 10.5009 5.99627 10.5554 5.55988C10.6081 5.13735 10.705 4.90233 10.8555 4.72469L10.0925 4.07832C9.76897 4.46017 9.62883 4.90948 9.5631 5.43599C9.49909 5.94865 9.5 6.59218 9.5 7.38851H10.5Z" fill="white"/>
</svg>
