<svg width="18" height="18" viewBox="0 0 18 18" fill="none" xmlns="http://www.w3.org/2000/svg">
<path d="M14.3613 0.0703125H3.63867C2.94089 0.0703125 2.37305 0.638156 2.37305 1.33594V16.6641C2.37305 17.3618 2.94089 17.9297 3.63867 17.9297H14.3613C15.0591 17.9297 15.627 17.3618 15.627 16.6641V1.33594C15.627 0.638156 15.0591 0.0703125 14.3613 0.0703125ZM14.7832 16.6641C14.7832 16.8967 14.5939 17.0859 14.3613 17.0859H3.63867C3.40608 17.0859 3.2168 16.8967 3.2168 16.6641V1.33594C3.2168 1.10334 3.40608 0.914062 3.63867 0.914062H14.3613C14.5939 0.914062 14.7832 1.10334 14.7832 1.33594V16.6641Z" fill="white"/>
<path d="M4.81641 3.02344H12.8672C13.1001 3.02344 13.2891 2.83472 13.2891 2.60156C13.2891 2.36841 13.1001 2.17969 12.8672 2.17969H4.81641C4.58325 2.17969 4.39453 2.36841 4.39453 2.60156C4.39453 2.83472 4.58325 3.02344 4.81641 3.02344Z" fill="white"/>
<path d="M4.81641 5.55469H9.21094C9.44381 5.55469 9.63281 5.36597 9.63281 5.13281C9.63281 4.89966 9.44381 4.71094 9.21094 4.71094H4.81641C4.58325 4.71094 4.39453 4.89966 4.39453 5.13281C4.39453 5.36597 4.58325 5.55469 4.81641 5.55469Z" fill="white"/>
<path d="M4.81641 8.08594H11.3203C11.5532 8.08594 11.7422 7.89722 11.7422 7.66406C11.7422 7.43091 11.5532 7.24219 11.3203 7.24219H4.81641C4.58325 7.24219 4.39453 7.43091 4.39453 7.66406C4.39453 7.89722 4.58325 8.08594 4.81641 8.08594Z" fill="white"/>
<path d="M8.49038 10.1953C8.49038 9.96244 8.30166 9.77344 8.0685 9.77344H4.81641C4.58325 9.77344 4.39453 9.96244 4.39453 10.1953C4.39453 10.4282 4.58325 10.6172 4.81641 10.6172H8.0685C8.30137 10.6172 8.49038 10.4282 8.49038 10.1953Z" fill="white"/>
<path d="M13.3266 14.1878L12.2835 15.2434L11.1995 12.8181C11.1956 12.8097 11.1903 12.8021 11.1858 12.7939C11.1787 12.7804 11.1714 12.7667 11.1627 12.754C11.1545 12.7414 11.145 12.7304 11.1354 12.7191C11.1275 12.7099 11.1197 12.7003 11.111 12.6913C11.098 12.6786 11.0842 12.6677 11.0699 12.6567C11.064 12.6522 11.0592 12.6469 11.0527 12.6424C11.0508 12.6409 11.0485 12.6401 11.0465 12.639C11.0319 12.6294 11.0167 12.6213 11.001 12.6137C10.9911 12.6086 10.9819 12.6033 10.9717 12.599C10.9585 12.5934 10.9445 12.5903 10.9307 12.5864C10.918 12.5824 10.9056 12.5782 10.8927 12.5757C10.8795 12.5732 10.8663 12.5729 10.853 12.5715C10.8393 12.5701 10.8255 12.5681 10.812 12.5684C10.799 12.5684 10.7861 12.5704 10.7735 12.5718C10.7588 12.5732 10.7445 12.574 10.7304 12.5771C10.7192 12.5794 10.7079 12.5833 10.6967 12.5867C10.6809 12.5914 10.6655 12.5957 10.6503 12.6021C10.6475 12.6033 10.6446 12.6038 10.6421 12.6049C10.634 12.6089 10.6269 12.6139 10.619 12.6182C10.6047 12.6255 10.5906 12.6331 10.5774 12.6421C10.5662 12.6497 10.556 12.6587 10.5459 12.6674C10.5352 12.6761 10.5248 12.6845 10.515 12.6947C10.5037 12.7062 10.4939 12.7186 10.484 12.7315C10.4784 12.7383 10.472 12.7442 10.4669 12.7515L9.14051 14.6831L8.81398 14.3481C8.81201 14.3459 8.80892 14.3453 8.80695 14.3431C8.79233 14.329 8.77826 14.3144 8.76139 14.302C8.73551 14.2832 8.70795 14.2683 8.67955 14.2559C8.67505 14.2539 8.67055 14.2531 8.66605 14.2514C8.61908 14.2331 8.57042 14.2221 8.5212 14.2213C8.51698 14.2213 8.51305 14.2221 8.50883 14.2221C8.45876 14.2224 8.40926 14.2309 8.3623 14.2486C8.35836 14.2503 8.35498 14.2525 8.35105 14.2542C8.30408 14.2733 8.25992 14.3009 8.22167 14.3377C8.22026 14.3389 8.21858 14.3391 8.21717 14.3405C8.21464 14.3431 8.2138 14.3464 8.21126 14.349C8.19748 14.3633 8.18342 14.3768 8.17161 14.3931L7.39817 15.4478C7.26036 15.6357 7.30086 15.8995 7.48873 16.0376C7.56411 16.0924 7.6513 16.1192 7.73792 16.1192C7.86758 16.1192 7.99583 16.0595 8.07823 15.9468L8.5572 15.2937L8.89273 15.6382C8.89301 15.6385 8.89301 15.6385 8.8933 15.6388L8.8947 15.6405C8.89526 15.641 8.89583 15.641 8.89639 15.6416C8.91495 15.6604 8.93548 15.6782 8.95798 15.6939C8.97486 15.7054 8.99342 15.7111 9.01114 15.7198C9.02492 15.7265 9.03786 15.7344 9.0522 15.7395C9.09917 15.7569 9.14755 15.7682 9.1962 15.7682C9.1962 15.7682 9.1962 15.7682 9.19648 15.7682C9.19677 15.7682 9.19676 15.7682 9.19705 15.7682C9.2443 15.7679 9.29042 15.7572 9.33514 15.7417C9.34498 15.7381 9.35455 15.735 9.36439 15.7308C9.40798 15.7119 9.44848 15.6863 9.4842 15.6529C9.48617 15.6509 9.48926 15.6503 9.49095 15.6484C9.49545 15.6441 9.49686 15.6385 9.5008 15.634C9.5157 15.618 9.53145 15.6034 9.54411 15.5848L10.7355 13.8495L11.7595 16.14V16.1403L11.7646 16.1512C11.7848 16.1965 11.8135 16.2348 11.8459 16.2685C11.849 16.2719 11.8498 16.2761 11.8529 16.2792C11.8594 16.2854 11.8684 16.2876 11.8751 16.2938C11.9044 16.3191 11.9359 16.3399 11.9705 16.3565C11.9834 16.3624 11.9955 16.3692 12.009 16.374C12.0537 16.39 12.1004 16.401 12.1488 16.401C12.149 16.401 12.1493 16.4013 12.1496 16.4013C12.1499 16.4013 12.1499 16.4013 12.1499 16.4013C12.1994 16.4013 12.2495 16.3906 12.2978 16.372C12.3035 16.37 12.3085 16.3692 12.3139 16.3669C12.3167 16.3655 12.3192 16.3653 12.3217 16.3641C12.3684 16.3433 12.4084 16.3141 12.443 16.2803C12.4449 16.2784 12.448 16.2778 12.4497 16.2755L13.9263 14.7813C14.09 14.6153 14.0883 14.3484 13.9226 14.1844C13.7572 14.0213 13.4906 14.0222 13.3266 14.1878Z" fill="white"/>
</svg>
