<svg width="24" height="24" viewBox="0 0 24 24" fill="none" xmlns="http://www.w3.org/2000/svg">
<path d="M12 4L5 7L12 10L19 7L12 4Z" stroke="white" stroke-linejoin="round"/>
<path fill-rule="evenodd" clip-rule="evenodd" d="M7.66009 10.3164L4.80304 11.5409C4.6192 11.6196 4.5 11.8004 4.5 12.0004C4.5 12.2004 4.6192 12.3812 4.80304 12.46L11.803 15.46C11.9288 15.5139 12.0712 15.5139 12.197 15.46L19.197 12.46C19.3808 12.3812 19.5 12.2004 19.5 12.0004C19.5 11.8004 19.3808 11.6196 19.197 11.5409L16.3399 10.3164L15.0706 10.8604L17.7307 12.0004L12 14.4564L6.2693 12.0004L8.92939 10.8604L7.66009 10.3164Z" fill="white"/>
<path fill-rule="evenodd" clip-rule="evenodd" d="M7.66009 15.3164L4.80304 16.5409C4.6192 16.6196 4.5 16.8004 4.5 17.0004C4.5 17.2004 4.6192 17.3812 4.80304 17.46L11.803 20.46C11.9288 20.5139 12.0712 20.5139 12.197 20.46L19.197 17.46C19.3808 17.3812 19.5 17.2004 19.5 17.0004C19.5 16.8004 19.3808 16.6196 19.197 16.5409L16.3399 15.3164L15.0706 15.8604L17.7307 17.0004L12 19.4564L6.2693 17.0004L8.92939 15.8604L7.66009 15.3164Z" fill="white"/>
</svg>
