<svg width="18" height="18" viewBox="0 0 18 18" fill="none" xmlns="http://www.w3.org/2000/svg">
<path d="M9 1.99117C9.49265 1.43264 10.1437 1.03738 10.8665 0.857978C11.5893 0.678572 12.3497 0.72353 13.0463 0.986868C13.7429 1.25021 14.3429 1.71944 14.7663 2.33213C15.1897 2.94482 15.4165 3.67192 15.4165 4.41667C15.4165 5.16142 15.1897 5.88852 14.7663 6.50121C14.3429 7.1139 13.7429 7.58313 13.0463 7.84647C12.3497 8.10981 11.5893 8.15476 10.8665 7.97536C10.1437 7.79595 9.49265 7.40069 9 6.84217M11.75 17.25H0.75V16.3333C0.75 14.8746 1.32946 13.4757 2.36091 12.4442C3.39236 11.4128 4.79131 10.8333 6.25 10.8333C7.70869 10.8333 9.10764 11.4128 10.1391 12.4442C11.1705 13.4757 11.75 14.8746 11.75 16.3333V17.25ZM11.75 17.25H17.25V16.3333C17.2501 15.3678 16.9961 14.4193 16.5134 13.5831C16.0308 12.7468 15.3365 12.0524 14.5003 11.5696C13.6642 11.0868 12.7157 10.8326 11.7502 10.8326C10.7847 10.8325 9.83616 11.0867 9 11.5694M9.91667 4.41667C9.91667 5.38913 9.53036 6.32176 8.84273 7.00939C8.15509 7.69703 7.22246 8.08333 6.25 8.08333C5.27754 8.08333 4.34491 7.69703 3.65728 7.00939C2.96964 6.32176 2.58333 5.38913 2.58333 4.41667C2.58333 3.44421 2.96964 2.51158 3.65728 1.82394C4.34491 1.13631 5.27754 0.750001 6.25 0.750001C7.22246 0.750001 8.15509 1.13631 8.84273 1.82394C9.53036 2.51158 9.91667 3.44421 9.91667 4.41667Z" stroke="white" stroke-linecap="round" stroke-linejoin="round"/>
</svg>
