<svg width="22" height="22" viewBox="0 0 22 22" fill="none" xmlns="http://www.w3.org/2000/svg">
<path d="M16.5007 12.3737H16.7923C17.7351 12.3737 18.2065 12.3737 18.4994 12.0808C18.7923 11.7879 18.7923 11.3165 18.7923 10.3737V9.95703C18.7923 8.07141 18.7923 7.1286 18.2065 6.54282C17.6207 5.95703 16.6779 5.95703 14.7923 5.95703H7.20898C5.32337 5.95703 4.38056 5.95703 3.79477 6.54282C3.20898 7.1286 3.20898 8.07141 3.20898 9.95703V11.3737C3.20898 11.8451 3.20898 12.0808 3.35543 12.2273C3.50188 12.3737 3.73758 12.3737 4.20898 12.3737H5.50065" stroke="#151313"/>
<path d="M5.95898 18.0973L5.95898 10.7077C5.95898 9.76487 5.95898 9.29347 6.25188 9.00058C6.54477 8.70768 7.01617 8.70768 7.95898 8.70768L14.0423 8.70768C14.9851 8.70768 15.4565 8.70768 15.7494 9.00058C16.0423 9.29347 16.0423 9.76487 16.0423 10.7077L16.0423 18.0973C16.0423 18.4139 16.0423 18.5721 15.9385 18.647C15.8347 18.7218 15.6845 18.6717 15.3842 18.5716L13.4661 17.9323C13.3801 17.9036 13.3371 17.8893 13.2928 17.8906C13.2485 17.8919 13.2064 17.9087 13.1223 17.9424L11.1863 18.7167C11.0946 18.7534 11.0488 18.7718 11.0007 18.7718C10.9525 18.7718 10.9067 18.7534 10.815 18.7167L8.87904 17.9424C8.7949 17.9087 8.75284 17.8919 8.70851 17.8906C8.66418 17.8893 8.6212 17.9036 8.53523 17.9323L6.6171 18.5716C6.31679 18.6717 6.16663 18.7218 6.06281 18.647C5.95898 18.5721 5.95898 18.4139 5.95898 18.0973Z" stroke="#151313"/>
<path d="M8.70898 12.374L12.3757 12.374" stroke="#151313" stroke-linecap="round"/>
<path d="M8.70898 15.124L13.2923 15.124" stroke="#151313" stroke-linecap="round"/>
<path d="M16.0423 5.95768V5.89102C16.0423 4.19396 16.0423 3.34543 15.5151 2.81822C14.9879 2.29102 14.1394 2.29102 12.4423 2.29102H9.55898C7.86193 2.29102 7.0134 2.29102 6.48619 2.81822C5.95898 3.34543 5.95898 4.19396 5.95898 5.89102V5.95768" stroke="#151313"/>
</svg>
